<?xml version="1.0" encoding="UTF-8"?>
<svg id="Layer_1" data-name="Layer 1" xmlns="http://www.w3.org/2000/svg" viewBox="0 0 432.6 98.65">
  <defs>
    <style>
      .cls-1 {
        fill: #cd2034;
      }

      .cls-1, .cls-2 {
        stroke-width: 0px;
      }

      .cls-2 {
        fill: #003752;
      }
    </style>
  </defs>
  <g>
    <path class="cls-2" d="M111.74,38.3v-9.99h11.59v-10.26c0-5.6,1.62-9.84,4.86-12.72,3.24-2.89,7.97-4.33,14.19-4.33,1.07,0,2.29.09,3.66.27,1.38.18,2.6.45,3.66.8v9.86c-.98-.35-2.04-.6-3.2-.73-1.16-.13-2.22-.2-3.2-.2-2.75,0-4.89.53-6.39,1.6-1.51,1.07-2.27,3.11-2.27,6.13v9.59h13.32v9.99h-13.32v58.89h-11.32v-58.89h-11.59Z"/>
    <path class="cls-2" d="M152.64,28.31h14.52l16.52,24.11,17.19-24.11h13.59l-23.71,31.71,26.65,37.17h-14.52l-19.18-28.51-19.18,28.51h-13.72l25.85-36.24-23.98-32.64Z"/>
    <path class="cls-2" d="M273.48,97.19v-10.92h-.27c-2.4,4.26-5.46,7.39-9.19,9.39s-8.13,3-13.19,3c-4.53,0-8.31-.6-11.32-1.8-3.02-1.2-5.46-2.91-7.33-5.13-1.87-2.22-3.18-4.86-3.93-7.93-.76-3.06-1.13-6.46-1.13-10.19V28.31h11.32v46.63c0,4.26,1.24,7.64,3.73,10.13,2.49,2.49,5.91,3.73,10.26,3.73,3.46,0,6.46-.53,8.99-1.6s4.64-2.58,6.33-4.53c1.69-1.95,2.95-4.24,3.8-6.86.84-2.62,1.27-5.48,1.27-8.59V28.31h11.32v68.88h-10.66Z"/>
    <path class="cls-2" d="M362.21,96.92c-1.96,1.15-4.66,1.73-8.13,1.73-2.93,0-5.26-.82-6.99-2.46-1.73-1.64-2.6-4.33-2.6-8.06-3.11,3.73-6.73,6.42-10.86,8.06-4.13,1.64-8.59,2.46-13.39,2.46-3.11,0-6.06-.36-8.86-1.07-2.8-.71-5.22-1.82-7.26-3.33-2.04-1.51-3.66-3.48-4.86-5.93-1.2-2.44-1.8-5.4-1.8-8.86,0-3.91.67-7.1,2-9.59,1.33-2.49,3.08-4.51,5.26-6.06,2.17-1.55,4.66-2.73,7.46-3.53s5.66-1.47,8.59-2c3.11-.62,6.06-1.09,8.86-1.4,2.8-.31,5.26-.75,7.39-1.33,2.13-.58,3.82-1.42,5.06-2.53,1.24-1.11,1.87-2.73,1.87-4.86,0-2.49-.47-4.48-1.4-6-.93-1.51-2.13-2.66-3.6-3.46-1.47-.8-3.11-1.33-4.93-1.6-1.82-.27-3.62-.4-5.4-.4-4.8,0-8.79.91-11.99,2.73-3.2,1.82-4.93,5.26-5.2,10.33h-11.32c.18-4.26,1.07-7.86,2.66-10.79s3.73-5.31,6.4-7.13c2.66-1.82,5.71-3.13,9.13-3.93,3.42-.8,7.08-1.2,10.99-1.2,3.11,0,6.2.22,9.26.67,3.06.44,5.84,1.35,8.33,2.73,2.49,1.37,4.48,3.3,6,5.78,1.51,2.48,2.27,5.72,2.27,9.7v35.36c0,2.66.15,4.61.47,5.85.31,1.24,1.35,1.86,3.13,1.86.98,0,2.13-.18,3.46-.53v8.79ZM343.82,61.62c-1.42,1.06-3.29,1.83-5.59,2.32-2.31.49-4.73.88-7.26,1.19-2.53.31-5.08.66-7.66,1.06-2.58.4-4.89,1.04-6.93,1.92-2.04.88-3.71,2.14-5,3.78-1.29,1.64-1.93,3.87-1.93,6.69,0,1.86.38,3.42,1.13,4.71.75,1.28,1.73,2.32,2.93,3.12,1.2.79,2.6,1.37,4.2,1.72,1.6.35,3.29.53,5.06.53,3.73,0,6.93-.51,9.59-1.52,2.66-1.02,4.84-2.3,6.53-3.84,1.69-1.55,2.93-3.23,3.73-5.04.8-1.81,1.2-3.51,1.2-5.1v-11.53Z"/>
    <path class="cls-2" d="M421.5,92.79c-5.15,3.91-11.64,5.86-19.45,5.86-5.51,0-10.28-.89-14.32-2.66-4.04-1.78-7.44-4.26-10.19-7.46-2.75-3.2-4.82-7.02-6.2-11.46-1.38-4.44-2.15-9.28-2.33-14.52,0-5.24.8-10.04,2.4-14.39,1.6-4.35,3.84-8.13,6.73-11.32,2.89-3.2,6.31-5.68,10.26-7.46,3.95-1.78,8.28-2.66,12.99-2.66,6.13,0,11.21,1.27,15.25,3.8,4.04,2.53,7.28,5.75,9.73,9.66,2.44,3.91,4.13,8.17,5.06,12.79.93,4.62,1.31,9.02,1.13,13.19h-51.56c-.09,3.02.27,5.88,1.07,8.59.8,2.71,2.09,5.11,3.86,7.19,1.78,2.09,4.04,3.75,6.79,5,2.75,1.25,6,1.87,9.73,1.87,4.8,0,8.73-1.11,11.79-3.33,3.06-2.22,5.08-5.6,6.06-10.13h11.19c-1.51,7.73-4.84,13.55-9.99,17.45ZM418.76,48.56c-1.02-2.4-2.4-4.46-4.13-6.19-1.73-1.73-3.78-3.11-6.13-4.13-2.35-1.02-4.95-1.53-7.79-1.53s-5.58.51-7.93,1.53c-2.35,1.02-4.38,2.42-6.06,4.2-1.69,1.78-3.02,3.84-4,6.2-.98,2.35-1.55,4.86-1.73,7.53h39.57c-.18-2.66-.78-5.2-1.8-7.59Z"/>
  </g>
  <g>
    <polygon class="cls-1" points="0 5.86 41.8 48.86 16.24 73.82 15.94 56.38 23.76 48.56 0 24.81 0 5.86"/>
    <polygon class="cls-1" points="92.31 0 49.31 41.8 24.36 16.24 41.8 15.94 49.62 23.76 73.37 0 92.31 0"/>
    <polygon class="cls-1" points="98.63 91.79 56.83 48.79 82.39 23.83 82.69 41.27 74.87 49.09 98.63 72.84 98.63 91.79"/>
    <polygon class="cls-1" points="6.31 97.65 49.31 55.85 74.27 81.41 56.83 81.71 49.01 73.9 25.26 97.65 6.31 97.65"/>
  </g>
</svg>